<svg width="51" height="53" viewBox="0 0 51 53" fill="none" xmlns="http://www.w3.org/2000/svg">
<path d="M7.85949 6.99627H18.6469C19.0691 6.99627 19.4113 6.65414 19.4113 6.2319C19.4113 5.80966 19.0691 5.46753 18.6469 5.46753H7.85949C6.95101 5.46753 6.21191 6.20673 6.21191 7.11521V9.89864C6.21191 10.8071 6.95101 11.5463 7.85949 11.5463H32.4905C33.399 11.5463 34.1381 10.8071 34.1381 9.89864V7.11521C34.1381 6.20673 33.399 5.46753 32.4905 5.46753H21.7031C21.2808 5.46753 20.9387 5.80966 20.9387 6.2319C20.9387 6.65414 21.2808 6.99627 21.7031 6.99627H32.4905C32.556 6.99627 32.6093 7.04957 32.6093 7.11521V9.89864C32.6093 9.96427 32.556 10.0176 32.4905 10.0176H7.85949C7.79396 10.0176 7.74066 9.96427 7.74066 9.89864V7.11521C7.74066 7.04968 7.79406 6.99627 7.85949 6.99627Z" fill="#8EC154"/>
<path d="M31.7279 14.0944H8.62253C8.20029 14.0944 7.85815 14.4365 7.85815 14.8587C7.85815 15.281 8.20029 15.6231 8.62253 15.6231H31.7279C32.1502 15.6231 32.4923 15.281 32.4923 14.8587C32.4923 14.4365 32.1501 14.0944 31.7279 14.0944Z" fill="#8EC154"/>
<path d="M31.7279 44.5529C32.1502 44.5529 32.4923 44.2108 32.4923 43.7885C32.4923 43.3663 32.1502 43.0242 31.7279 43.0242H8.62253C8.20029 43.0242 7.85815 43.3663 7.85815 43.7885C7.85815 44.2108 8.20029 44.5529 8.62253 44.5529H31.7279Z" fill="#8EC154"/>
<path d="M33.6574 24.3395C30.5402 21.2226 25.4683 21.2226 22.3513 24.3395C19.2269 27.4637 19.2264 32.5208 22.3513 35.6457C25.4683 38.7627 30.5401 38.7626 33.6574 35.6457C36.7817 32.5211 36.7821 27.4642 33.6574 24.3395ZM32.5764 34.5645C30.0557 37.085 25.9537 37.086 23.4323 34.5645C22.8675 33.9997 22.4216 33.348 22.1037 32.6406H31.7277C32.1499 32.6406 32.4921 32.2984 32.4921 31.8762C32.4921 31.454 32.1499 31.1118 31.7277 31.1118H21.6363C21.4185 29.8576 21.5733 28.6239 22.0201 27.5355H31.7276C32.1498 27.5355 32.492 27.1934 32.492 26.7711C32.492 26.3489 32.1498 26.0068 31.7276 26.0068H22.9142C23.0744 25.803 23.246 25.6066 23.4321 25.4205C25.9532 22.8994 30.055 22.8994 32.5761 25.4205H32.5762C35.1033 27.9475 35.1036 32.0374 32.5764 34.5645Z" fill="#8EC154"/>
<path d="M45.5343 46.4416C45.2359 46.1432 44.7519 46.1431 44.4534 46.4417C44.1549 46.7402 44.1549 47.2242 44.4535 47.5226L45.5465 48.6156C45.6957 48.7648 45.8914 48.8394 46.087 48.8394C46.2826 48.8394 46.4782 48.7648 46.6275 48.6155C46.9261 48.317 46.9261 47.833 46.6274 47.5346L45.5343 46.4416Z" fill="#8EC154"/>
<path d="M49.2907 43.0123L49.0056 42.7271C48.7069 42.4287 48.223 42.4287 47.9245 42.7271C47.626 43.0257 47.626 43.5096 47.9245 43.8081L48.2097 44.0933C49.8927 45.7763 49.8927 48.5148 48.2098 50.1978C46.5265 51.8808 43.7882 51.8808 42.1052 50.1978L37.0833 45.1758C36.5858 44.6783 36.5858 43.8732 37.0834 43.3759L40.7887 39.6706C40.789 39.6703 40.7894 39.67 40.7897 39.6697C40.79 39.6694 40.7903 39.669 40.7906 39.6687L41.3879 39.0714C41.8842 38.5751 42.6915 38.5751 43.1878 39.0714L45.7348 41.6184C46.0334 41.9168 46.5173 41.9168 46.8158 41.6184C47.1143 41.3197 47.1143 40.8358 46.8158 40.5373L44.2688 37.9903C43.1764 36.8981 41.3993 36.8981 40.3068 37.9903L40.249 38.0481L37.8073 35.6065C37.7286 35.5278 37.7139 35.4048 37.7707 35.3004C39.241 32.5978 39.5464 29.2933 38.484 26.279V2.6018C38.484 1.60924 37.6765 0.801758 36.6839 0.801758H1.80004C0.807482 0.801758 0 1.60924 0 2.6018V43.2323C0 43.6545 0.342132 43.9967 0.764371 43.9967C1.18661 43.9967 1.52874 43.6545 1.52874 43.2323V2.6018C1.52874 2.45219 1.65043 2.3305 1.80004 2.3305H36.6839C36.8336 2.3305 36.9553 2.45219 36.9553 2.6018V23.4038C36.6257 22.9582 36.2623 22.5332 35.863 22.134C32.3653 18.6367 27.3135 18.078 23.3784 19.8805H8.62241C8.20017 19.8805 7.85804 20.2226 7.85804 20.6448C7.85804 21.0671 8.20017 21.4092 8.62241 21.4092H20.9442C20.6255 21.6724 20.3188 21.9541 20.0266 22.2553C19.0559 23.2555 18.2962 24.4114 17.7687 25.6664H8.62241C8.20017 25.6664 7.85804 26.0086 7.85804 26.4308C7.85804 26.853 8.20017 27.1952 8.62241 27.1952H17.2544C16.9097 28.5375 16.8065 29.9819 16.9973 31.4523H8.62241C8.20017 31.4523 7.85804 31.7945 7.85804 32.2167C7.85804 32.6389 8.20017 32.9811 8.62241 32.9811H17.3052C17.7365 34.5444 18.507 35.9945 19.5781 37.2383H8.62241C8.20017 37.2383 7.85804 37.5804 7.85804 38.0027C7.85804 38.4249 8.20017 38.767 8.62241 38.767H21.1887C24.6322 41.4346 29.4188 41.878 33.3145 39.7578C33.4177 39.7018 33.5397 39.7168 33.6182 39.7954L36.06 42.2372C36.0364 42.2717 35.1817 42.9854 35.1817 44.276C35.1817 45.0244 35.4731 45.7279 36.0023 46.2571L36.9554 47.2102V51.1999C36.9554 51.3496 36.8337 51.4713 36.684 51.4713H1.80004C1.65043 51.4713 1.52874 51.3496 1.52874 51.1999V46.2887C1.52874 45.8664 1.18661 45.5243 0.764371 45.5243C0.342132 45.5243 0 45.8664 0 46.2887V51.1999C0 52.1925 0.807482 53 1.80004 53H36.6839C37.6765 53 38.484 52.1925 38.484 51.1999V48.7389L41.0242 51.2791C43.3031 53.558 47.0115 53.558 49.2907 51.279C51.5698 48.9997 51.5698 45.2913 49.2907 43.0123ZM34.6992 38.7144C34.1373 38.1523 33.2871 38.032 32.5836 38.4149C28.839 40.4531 24.1382 39.7458 21.1524 36.6947C17.5336 32.9971 17.5193 27.0337 21.1235 23.3199C24.8515 19.4784 30.9925 19.4256 34.7819 23.2151C37.8621 26.2953 38.4018 30.9412 36.4279 34.5698C36.0444 35.2746 36.1644 36.1258 36.7264 36.6875L39.168 39.1292L37.1411 41.1561L34.6992 38.7144Z" fill="#8EC154"/>
</svg>
