<svg width="67" height="163" viewBox="0 0 67 163" fill="none" xmlns="http://www.w3.org/2000/svg">
<mask id="mask0" mask-type="alpha" maskUnits="userSpaceOnUse" x="0" y="0" width="67" height="163">
<rect width="67" height="163" rx="30" fill="white"/>
</mask>
<g mask="url(#mask0)">
<path d="M28.3099 39.3836L28.3471 39.3702L28.3838 39.3559C28.8566 39.1714 29.3235 38.9926 29.7844 38.8193V142.024C29.7844 145.289 30.9676 148.169 33.2535 150.508L33.2879 150.543L33.3234 150.577C35.6841 152.839 38.5779 154 41.8486 154C45.1586 154 48.0784 152.851 50.409 150.543C52.7636 148.211 54 145.321 54 142.024V22.0619C54 18.775 52.8402 15.8825 50.5315 13.5788C48.2444 11.1772 45.2982 10 41.9358 10C40.5219 10 39.1366 10.2688 37.7949 10.776L17.9028 17.3132L17.7337 17.3688L17.5723 17.444C15.2306 18.5352 13.2797 20.0255 11.9215 22.0034L11.8977 22.038L11.8749 22.0732C10.608 24.0336 10 26.2474 10 28.621C10 31.93 11.1061 34.8592 13.3808 37.1894L13.4163 37.2258L13.4531 37.261C15.8037 39.511 18.7474 40.5966 22.0642 40.5966C24.0657 40.5966 26.1589 40.1581 28.3099 39.3836Z" fill="#F4F4F4" stroke="#F4F4F4" stroke-width="6"/>
</g>
</svg>
