<svg width="39" height="42" viewBox="0 0 39 42" fill="none" xmlns="http://www.w3.org/2000/svg">
<path d="M26.0686 36.0691C25.7398 36.0691 25.4743 36.3398 25.4827 36.6705C25.491 36.9928 25.7733 37.2412 26.0957 37.2412H31.5697C31.892 37.2412 32.1744 36.9929 32.1826 36.6705C32.1911 36.3398 31.9256 36.0691 31.5968 36.0691H26.0686Z" fill="#8EC154"/>
<path d="M38.0989 39.3845L36.812 32.7995C36.519 31.3007 35.73 29.9712 34.4668 28.8482C34.2205 28.6293 33.8406 28.6558 33.6275 28.9106C33.4214 29.157 33.4688 29.5279 33.7081 29.7421C34.778 30.6996 35.4173 31.7735 35.6617 33.0244L36.9485 39.6087C36.9487 39.6097 36.9489 39.6105 36.9491 39.6115C36.9698 39.7187 36.8892 39.8179 36.7802 39.8239C36.7355 39.8264 36.6832 39.8279 36.6223 39.8279H22.0965C22.0947 39.8279 22.0933 39.8262 22.0937 39.8244L25.4823 26.1296C25.4827 26.1281 25.4842 26.1272 25.4858 26.1275C27.4169 26.6324 29.624 27.2705 31.5088 28.2572C31.5956 28.3026 31.6885 28.3243 31.7802 28.3243C32.0056 28.3243 32.2229 28.1936 32.3198 27.9678C32.4428 27.6811 32.3036 27.3497 32.0269 27.2056C29.7044 25.9951 26.9923 25.3012 24.8116 24.7432C24.8116 24.7432 24.4629 24.65 24.4347 24.6388C24.434 24.6385 24.4339 24.6385 24.4339 24.6376C24.4333 24.5936 24.4331 22.7066 24.4331 22.6815C24.4331 22.6811 24.4333 22.6811 24.4337 22.6808C26.3518 21.2721 27.9208 19.2073 28.6373 17.1564C28.6376 17.1553 28.6386 17.1546 28.6396 17.1546C30.2659 16.9931 31.7864 16.0119 31.7864 14.2914V13.4188C31.7864 12.3201 30.9016 11.4262 29.8138 11.4262H29.0627C29.0612 11.4262 29.0599 11.4249 29.0599 11.4234L29.031 9.50383C29.0348 8.14235 28.7287 6.88203 28.1212 5.75781C27.9673 5.47312 27.6119 5.36695 27.3269 5.52078C27.0422 5.67469 26.9361 6.03023 27.0899 6.315C27.604 7.26641 27.8627 8.33977 27.8589 9.50516C27.8589 9.50876 27.8589 9.51243 27.859 9.51602L27.8884 11.4693C27.8884 11.4708 27.8873 11.472 27.8858 11.4722C24.0928 11.7185 18.5684 10.9301 15.3889 9.09477C13.9486 8.26368 12.2228 9.00305 10.9139 10.3205C10.9121 10.3223 10.9091 10.321 10.9091 10.3185V8.45711C10.9091 7.81172 11.004 6.22367 11.8833 5.41883C12.3293 5.01054 12.9243 4.84531 13.7021 4.91453C13.9754 4.93851 14.2283 4.77062 14.3119 4.50968C14.6187 3.5532 15.5443 2.81843 16.9181 2.44077C19.34 1.77499 23.1054 2.26226 25.6159 4.48187C25.8583 4.69617 26.2287 4.67351 26.4432 4.43101C26.6576 4.18851 26.6348 3.8182 26.3923 3.60374C23.5701 1.10842 19.334 0.561236 16.6076 1.31061C15.0311 1.74397 13.8971 2.59296 13.3637 3.72593C13.3632 3.72687 13.3623 3.72749 13.3612 3.72749C12.4514 3.73015 11.6896 4.00726 11.0921 4.55421C9.91323 5.63328 9.73721 7.46266 9.73721 8.45711V11.4232C9.73721 11.4248 9.73596 11.426 9.7344 11.426H8.99205C7.90447 11.426 7.01955 12.3199 7.01955 13.4186V14.2913C7.01955 16.0117 8.54033 16.9931 10.1667 17.1544C10.1677 17.1545 10.1686 17.1552 10.1689 17.1562C10.916 19.2921 12.59 21.4461 14.6228 22.8589C14.6517 22.8787 14.6813 22.8986 14.7104 22.9184C14.7112 22.9189 14.7117 22.9193 14.7117 22.9203C14.7117 22.9666 14.7114 24.5908 14.7109 24.6373C14.7109 24.6382 14.7107 24.6384 14.7099 24.6387C14.6809 24.65 14.3335 24.7429 14.3335 24.7429C9.96299 25.8599 3.35821 27.5479 2.33266 32.7997L1.04563 39.3852C1.00938 39.5715 0.899144 40.1388 1.24555 40.559C1.56782 40.9498 2.09719 41 2.52243 41H36.6223C37.0474 41 37.5769 40.9498 37.8991 40.559C38.2456 40.1388 38.1353 39.5715 38.0989 39.3845ZM28.9654 15.9127C29.0333 15.5289 29.0688 15.1531 29.0688 14.7895V12.6009C29.0688 12.5993 29.0701 12.5981 29.0716 12.5981H29.8139C30.2478 12.5981 30.6144 12.9738 30.6144 13.4185V14.2912C30.6144 15.1599 29.8694 15.7121 28.9698 15.9169C28.9676 15.9149 28.9676 15.9148 28.9654 15.9127ZM8.19166 14.2912V13.4185C8.19166 12.9738 8.55815 12.5981 8.99205 12.5981H9.7344C9.73596 12.5981 9.73721 12.5993 9.73721 12.6009V14.7895C9.73721 15.1531 9.77268 15.5289 9.84065 15.9127C9.83846 15.9148 9.83846 15.9148 9.83627 15.9169C8.93658 15.7122 8.19166 15.16 8.19166 14.2912ZM23.853 27.826C20.937 29.3333 18.2003 29.3207 15.2807 27.7866C15.28 27.7862 15.2794 27.7856 15.2793 27.7848L14.7966 25.8343L14.8835 25.8122C15.7103 25.6029 15.8839 25.0444 15.8839 24.6128V23.6199C15.8839 23.6178 15.8861 23.6164 15.8879 23.6175C16.2319 23.7928 16.5786 23.9461 16.9252 24.0745C17.8296 24.4109 18.6172 24.5676 19.4042 24.5676C20.1897 24.5676 20.9768 24.411 21.8806 24.0747C22.3442 23.9025 22.8043 23.6884 23.257 23.4364C23.2589 23.4354 23.2611 23.4368 23.2611 23.4389V24.6128C23.2611 25.0444 23.4347 25.6029 24.2598 25.8117L24.3481 25.8343L23.8546 27.8242C23.8543 27.8249 23.8537 27.8256 23.853 27.826ZM11.1642 16.4261C10.995 15.8546 10.9092 15.304 10.9092 14.7895V12.1834C10.9092 12.1828 10.9094 12.1823 10.9097 12.1818C11.9302 10.6156 13.6297 9.43282 14.8032 10.1098C17.8682 11.8792 22.6588 12.6892 26.438 12.6892C26.9437 12.6892 27.4308 12.6743 27.8938 12.6456C27.8955 12.6456 27.8968 12.6468 27.8968 12.6485V14.7896C27.8968 15.3042 27.811 15.8547 27.6416 16.4267C27.0441 18.4507 25.4622 20.5475 23.5138 21.8981C22.8511 22.3563 22.1643 22.7189 21.4722 22.9759C20.7029 23.2621 20.0457 23.3954 19.404 23.3954C18.761 23.3954 18.0992 23.2725 17.333 22.9757C16.0561 22.481 15.3953 21.9675 15.2888 21.8945C13.3414 20.5409 11.761 18.4457 11.1642 16.4261ZM2.52251 39.8278C2.45883 39.8278 2.40454 39.8262 2.35852 39.8234C2.25157 39.8172 2.17532 39.7172 2.19563 39.612L2.19618 39.6092L3.48313 33.0242C4.29946 28.8439 9.63073 27.1793 13.6587 26.1269C13.6602 26.1265 13.6618 26.1275 13.6621 26.129L17.0511 39.8242C17.0515 39.826 17.0501 39.8277 17.0483 39.8277H2.52251V39.8278ZM20.8833 39.8278H18.2614C18.2601 39.8278 18.259 39.827 18.2587 39.8257L15.6457 29.2659C15.6451 29.2636 15.6474 29.2618 15.6495 29.2627C16.9864 29.8423 18.295 30.1334 19.6037 30.1334C20.8886 30.1334 22.174 29.8526 23.4861 29.294C23.4882 29.293 23.4904 29.2949 23.4899 29.2972L20.886 39.8256C20.8857 39.827 20.8847 39.8278 20.8833 39.8278Z" fill="#8EC154"/>
<path d="M15.7604 15.7629C16.0827 15.7547 16.3311 15.4723 16.3311 15.15V14.7635C16.3311 14.4411 16.0828 14.1587 15.7604 14.1505C15.4297 14.1421 15.159 14.4075 15.159 14.7364V15.1772C15.159 15.5059 15.4297 15.7714 15.7604 15.7629Z" fill="#8EC154"/>
<path d="M22.9744 15.763C23.2966 15.7547 23.5451 15.4724 23.5451 15.15V14.7635C23.5451 14.4412 23.2967 14.1588 22.9744 14.1506C22.6437 14.1421 22.3729 14.4076 22.3729 14.7364V15.1772C22.3729 15.506 22.6436 15.7714 22.9744 15.763Z" fill="#8EC154"/>
<path d="M19.3006 20.6028C19.3175 20.6031 19.3343 20.6033 19.3511 20.6033C20.0724 20.6033 20.7644 20.2989 21.3076 19.7419C21.5066 19.5379 21.5504 19.2166 21.3862 18.9836C21.166 18.6711 20.7312 18.6498 20.4805 18.9111C20.1511 19.2546 19.7414 19.4389 19.3237 19.431C18.9338 19.4232 18.5672 19.2514 18.2886 18.9463C18.103 18.7429 17.8051 18.6658 17.5627 18.7964C17.2141 18.984 17.1497 19.4286 17.3951 19.7056C17.8951 20.2698 18.5718 20.5885 19.3006 20.6028Z" fill="#8EC154"/>
<path d="M26.0686 36.0691C25.7398 36.0691 25.4743 36.3398 25.4827 36.6705C25.491 36.9928 25.7733 37.2412 26.0957 37.2412H31.5697C31.892 37.2412 32.1744 36.9929 32.1826 36.6705C32.1911 36.3398 31.9256 36.0691 31.5968 36.0691H26.0686Z" stroke="#8EC154" stroke-width="0.7"/>
<path d="M38.0989 39.3845L36.812 32.7995C36.519 31.3007 35.73 29.9712 34.4668 28.8482C34.2205 28.6293 33.8406 28.6558 33.6275 28.9106C33.4214 29.157 33.4688 29.5279 33.7081 29.7421C34.778 30.6996 35.4173 31.7735 35.6617 33.0244L36.9485 39.6087C36.9487 39.6097 36.9489 39.6105 36.9491 39.6115C36.9698 39.7187 36.8892 39.8179 36.7802 39.8239C36.7355 39.8264 36.6832 39.8279 36.6223 39.8279H22.0965C22.0947 39.8279 22.0933 39.8262 22.0937 39.8244L25.4823 26.1296C25.4827 26.1281 25.4842 26.1272 25.4858 26.1275C27.4169 26.6324 29.624 27.2705 31.5088 28.2572C31.5956 28.3026 31.6885 28.3243 31.7802 28.3243C32.0056 28.3243 32.2229 28.1936 32.3198 27.9678C32.4428 27.6811 32.3036 27.3497 32.0269 27.2056C29.7044 25.9951 26.9923 25.3012 24.8116 24.7432C24.8116 24.7432 24.4629 24.65 24.4347 24.6388C24.434 24.6385 24.4339 24.6385 24.4339 24.6376C24.4333 24.5936 24.4331 22.7066 24.4331 22.6815C24.4331 22.6811 24.4333 22.6811 24.4337 22.6808C26.3518 21.2721 27.9208 19.2073 28.6373 17.1564C28.6376 17.1553 28.6386 17.1546 28.6396 17.1546C30.2659 16.9931 31.7864 16.0119 31.7864 14.2914V13.4188C31.7864 12.3201 30.9016 11.4262 29.8138 11.4262H29.0627C29.0612 11.4262 29.0599 11.4249 29.0599 11.4234L29.031 9.50383C29.0348 8.14235 28.7287 6.88203 28.1212 5.75781C27.9673 5.47312 27.6119 5.36695 27.3269 5.52078C27.0422 5.67469 26.9361 6.03023 27.0899 6.315C27.604 7.26641 27.8627 8.33977 27.8589 9.50516C27.8589 9.50876 27.8589 9.51243 27.859 9.51602L27.8884 11.4693C27.8884 11.4708 27.8873 11.472 27.8858 11.4722C24.0928 11.7185 18.5684 10.9301 15.3889 9.09477C13.9486 8.26368 12.2228 9.00305 10.9139 10.3205C10.9121 10.3223 10.9091 10.321 10.9091 10.3185V8.45711C10.9091 7.81172 11.004 6.22367 11.8833 5.41883C12.3293 5.01054 12.9243 4.84531 13.7021 4.91453C13.9754 4.93851 14.2283 4.77062 14.3119 4.50968C14.6187 3.5532 15.5443 2.81843 16.9181 2.44077C19.34 1.77499 23.1054 2.26226 25.6159 4.48187C25.8583 4.69617 26.2287 4.67351 26.4432 4.43101C26.6576 4.18851 26.6348 3.8182 26.3923 3.60374C23.5701 1.10842 19.334 0.561236 16.6076 1.31061C15.0311 1.74397 13.8971 2.59296 13.3637 3.72593C13.3632 3.72687 13.3623 3.72749 13.3612 3.72749C12.4514 3.73015 11.6896 4.00726 11.0921 4.55421C9.91323 5.63328 9.73721 7.46266 9.73721 8.45711V11.4232C9.73721 11.4248 9.73596 11.426 9.7344 11.426H8.99205C7.90447 11.426 7.01955 12.3199 7.01955 13.4186V14.2913C7.01955 16.0117 8.54033 16.9931 10.1667 17.1544C10.1677 17.1545 10.1686 17.1552 10.1689 17.1562C10.916 19.2921 12.59 21.4461 14.6228 22.8589C14.6517 22.8787 14.6813 22.8986 14.7104 22.9184C14.7112 22.9189 14.7117 22.9193 14.7117 22.9203C14.7117 22.9666 14.7114 24.5908 14.7109 24.6373C14.7109 24.6382 14.7107 24.6384 14.7099 24.6387C14.6809 24.65 14.3335 24.7429 14.3335 24.7429C9.96299 25.8599 3.35821 27.5479 2.33266 32.7997L1.04563 39.3852C1.00938 39.5715 0.899144 40.1388 1.24555 40.559C1.56782 40.9498 2.09719 41 2.52243 41H36.6223C37.0474 41 37.5769 40.9498 37.8991 40.559C38.2456 40.1388 38.1353 39.5715 38.0989 39.3845ZM28.9654 15.9127C29.0333 15.5289 29.0688 15.1531 29.0688 14.7895V12.6009C29.0688 12.5993 29.0701 12.5981 29.0716 12.5981H29.8139C30.2478 12.5981 30.6144 12.9738 30.6144 13.4185V14.2912C30.6144 15.1599 29.8694 15.7121 28.9698 15.9169C28.9676 15.9149 28.9676 15.9148 28.9654 15.9127ZM8.19166 14.2912V13.4185C8.19166 12.9738 8.55815 12.5981 8.99205 12.5981H9.7344C9.73596 12.5981 9.73721 12.5993 9.73721 12.6009V14.7895C9.73721 15.1531 9.77268 15.5289 9.84065 15.9127C9.83846 15.9148 9.83846 15.9148 9.83627 15.9169C8.93658 15.7122 8.19166 15.16 8.19166 14.2912ZM23.853 27.826C20.937 29.3333 18.2003 29.3207 15.2807 27.7866C15.28 27.7862 15.2794 27.7856 15.2793 27.7848L14.7966 25.8343L14.8835 25.8122C15.7103 25.6029 15.8839 25.0444 15.8839 24.6128V23.6199C15.8839 23.6178 15.8861 23.6164 15.8879 23.6175C16.2319 23.7928 16.5786 23.9461 16.9252 24.0745C17.8296 24.4109 18.6172 24.5676 19.4042 24.5676C20.1897 24.5676 20.9768 24.411 21.8806 24.0747C22.3442 23.9025 22.8043 23.6884 23.257 23.4364C23.2589 23.4354 23.2611 23.4368 23.2611 23.4389V24.6128C23.2611 25.0444 23.4347 25.6029 24.2598 25.8117L24.3481 25.8343L23.8546 27.8242C23.8543 27.8249 23.8537 27.8256 23.853 27.826ZM11.1642 16.4261C10.995 15.8546 10.9092 15.304 10.9092 14.7895V12.1834C10.9092 12.1828 10.9094 12.1823 10.9097 12.1818C11.9302 10.6156 13.6297 9.43282 14.8032 10.1098C17.8682 11.8792 22.6588 12.6892 26.438 12.6892C26.9437 12.6892 27.4308 12.6743 27.8938 12.6456C27.8955 12.6456 27.8968 12.6468 27.8968 12.6485V14.7896C27.8968 15.3042 27.811 15.8547 27.6416 16.4267C27.0441 18.4507 25.4622 20.5475 23.5138 21.8981C22.8511 22.3563 22.1643 22.7189 21.4722 22.9759C20.7029 23.2621 20.0457 23.3954 19.404 23.3954C18.761 23.3954 18.0992 23.2725 17.333 22.9757C16.0561 22.481 15.3953 21.9675 15.2888 21.8945C13.3414 20.5409 11.761 18.4457 11.1642 16.4261ZM2.52251 39.8278C2.45883 39.8278 2.40454 39.8262 2.35852 39.8234C2.25157 39.8172 2.17532 39.7172 2.19563 39.612L2.19618 39.6092L3.48313 33.0242C4.29946 28.8439 9.63073 27.1793 13.6587 26.1269C13.6602 26.1265 13.6618 26.1275 13.6621 26.129L17.0511 39.8242C17.0515 39.826 17.0501 39.8277 17.0483 39.8277H2.52251V39.8278ZM20.8833 39.8278H18.2614C18.2601 39.8278 18.259 39.827 18.2587 39.8257L15.6457 29.2659C15.6451 29.2636 15.6474 29.2618 15.6495 29.2627C16.9864 29.8423 18.295 30.1334 19.6037 30.1334C20.8886 30.1334 22.174 29.8526 23.4861 29.294C23.4882 29.293 23.4904 29.2949 23.4899 29.2972L20.886 39.8256C20.8857 39.827 20.8847 39.8278 20.8833 39.8278Z" stroke="#8EC154" stroke-width="0.7"/>
<path d="M15.7604 15.7629C16.0827 15.7547 16.3311 15.4723 16.3311 15.15V14.7635C16.3311 14.4411 16.0828 14.1587 15.7604 14.1505C15.4297 14.1421 15.159 14.4075 15.159 14.7364V15.1772C15.159 15.5059 15.4297 15.7714 15.7604 15.7629Z" stroke="#8EC154" stroke-width="0.7"/>
<path d="M22.9744 15.763C23.2966 15.7547 23.5451 15.4724 23.5451 15.15V14.7635C23.5451 14.4412 23.2967 14.1588 22.9744 14.1506C22.6437 14.1421 22.3729 14.4076 22.3729 14.7364V15.1772C22.3729 15.506 22.6436 15.7714 22.9744 15.763Z" stroke="#8EC154" stroke-width="0.7"/>
<path d="M19.3006 20.6028C19.3175 20.6031 19.3343 20.6033 19.3511 20.6033C20.0724 20.6033 20.7644 20.2989 21.3076 19.7419C21.5066 19.5379 21.5504 19.2166 21.3862 18.9836C21.166 18.6711 20.7312 18.6498 20.4805 18.9111C20.1511 19.2546 19.7414 19.4389 19.3237 19.431C18.9338 19.4232 18.5672 19.2514 18.2886 18.9463C18.103 18.7429 17.8051 18.6658 17.5627 18.7964C17.2141 18.984 17.1497 19.4286 17.3951 19.7056C17.8951 20.2698 18.5718 20.5885 19.3006 20.6028Z" stroke="#8EC154" stroke-width="0.7"/>
</svg>
