<svg width="40" height="40" viewBox="0 0 40 40" fill="none" xmlns="http://www.w3.org/2000/svg">
<path d="M7.08913 14.1198C6.65791 14.1198 6.30788 14.4695 6.30788 14.9007C6.30788 15.3319 6.65791 15.682 7.08913 15.682C7.52034 15.682 7.87038 15.3319 7.87038 14.9007C7.87038 14.4695 7.52034 14.1198 7.08913 14.1198Z" fill="#8EC154"/>
<path d="M28.9782 23.4545C28.832 23.308 28.633 23.2256 28.4258 23.2256C28.4179 23.2271 28.1176 23.2104 27.8734 23.4545L27.3214 24.0066L25.5263 22.2118C29.4875 16.6591 28.8851 8.99953 24.0069 4.12159C18.5119 -1.37341 9.6172 -1.37432 4.12159 4.12159C-1.37341 9.61629 -1.37432 18.5113 4.12159 24.0069C8.98763 28.8732 16.6442 29.4976 22.2115 25.5263L24.0066 27.3214L23.4545 27.8734C23.1496 28.1783 23.1493 28.6733 23.4545 28.9785L33.3312 38.8543C34.8574 40.3814 37.3278 40.3823 38.8543 38.8546C40.3814 37.3287 40.382 34.858 38.8543 33.3315L28.9782 23.4545ZM25.1113 26.2166L23.4386 24.544C23.633 24.3697 23.8232 24.1909 24.0069 24.0069C24.1909 23.8232 24.3697 23.633 24.544 23.4389L26.2166 25.1116L25.1113 26.2166ZM5.22633 22.9021C0.341683 18.0178 0.341072 10.1113 5.22633 5.22633C10.1107 0.341683 18.0172 0.341072 22.9021 5.22633C27.7758 10.0997 27.8005 18.0044 22.9021 22.9021C17.9485 27.8564 10.0441 27.7202 5.22633 22.9021ZM28.4258 25.1116L30.635 27.3211L27.3211 30.635L25.1116 28.4258L28.4258 25.1116ZM37.7496 37.7499C36.834 38.6663 35.3524 38.6666 34.4363 37.7499L28.4258 31.7397L31.7397 28.4258L37.7499 34.4366C38.666 35.3518 38.6669 36.8334 37.7496 37.7499Z" fill="#8EC154"/>
<path d="M21.7977 6.33137C17.5255 2.05921 10.6044 2.05677 6.33046 6.33076C2.06715 10.595 2.06715 17.5335 6.33046 21.798C10.6051 26.0723 17.5222 26.0726 21.7971 21.798C26.0613 17.5335 26.0616 10.5953 21.7977 6.33137ZM20.6923 20.693C17.0287 24.3566 11.0997 24.3575 7.4352 20.6933C3.78102 17.0379 3.78102 11.0906 7.4352 7.4352C11.097 3.77369 17.0299 3.77278 20.693 7.43611C24.3477 11.0909 24.3474 17.0379 20.6923 20.693Z" fill="#8EC154"/>
<path d="M14.0642 6.25325C11.9762 6.25325 10.0145 7.06563 8.54054 8.54054C7.68604 9.39504 7.05708 10.4046 6.67133 11.5416C6.53278 11.95 6.75129 12.3937 7.15992 12.5322C7.56916 12.6711 8.01228 12.4514 8.15083 12.0437C8.45875 11.1358 8.96168 10.3289 9.64528 9.64498C10.8245 8.46547 12.3937 7.81575 14.0642 7.81575C14.4957 7.81575 14.8455 7.46602 14.8455 7.0345C14.8455 6.60298 14.4957 6.25325 14.0642 6.25325Z" fill="#8EC154"/>
</svg>
