<svg width="167" height="151" viewBox="0 0 167 151" fill="none" xmlns="http://www.w3.org/2000/svg">
<mask id="mask0" mask-type="alpha" maskUnits="userSpaceOnUse" x="0" y="0" width="167" height="151">
<rect width="167" height="151" rx="30" fill="white"/>
</mask>
<g mask="url(#mask0)">
<path d="M38.5126 30.337L38.5069 30.3501L38.5013 30.3632C36.1617 35.8166 35 41.6292 35 47.7711C35 51.0205 36.1576 53.8944 38.4097 56.2368L38.4438 56.2723L38.479 56.3066C40.8072 58.5744 43.6718 59.7467 46.9174 59.7467C50.2014 59.7467 53.0917 58.5859 55.3906 56.272C57.7109 53.9366 58.9205 51.0517 58.9205 47.7711C58.9205 44.8115 59.4493 42.108 60.48 39.6288C61.5919 37.0924 63.0647 34.9153 64.8941 33.0704C66.7886 31.2172 68.9813 29.7615 71.4936 28.6994L71.517 28.6895L71.5402 28.6792C73.9995 27.5901 76.642 27.0375 79.5 27.0375C82.293 27.0375 84.9078 27.587 87.374 28.6792C89.8889 29.793 92.0534 31.2993 93.8923 33.2003L93.9202 33.229L93.9487 33.257C95.8374 35.108 97.3357 37.2885 98.4443 39.8245C99.5319 42.3123 100.08 44.9515 100.08 47.7711C100.08 53.5909 98.0525 58.4994 93.9203 62.6586L93.8504 62.729L93.7852 62.8039L38.2838 126.599C36.0597 128.878 35 131.767 35 135.024C35 136.622 35.3046 138.167 35.9183 139.634C36.5107 141.05 37.331 142.327 38.3725 143.451L38.4077 143.489L38.4441 143.525C39.5292 144.617 40.8011 145.466 42.2313 146.072C43.7117 146.699 45.2845 147 46.9174 147H111.997C115.281 147 118.171 145.839 120.47 143.525C122.79 141.19 124 138.305 124 135.024C124 131.752 122.796 128.873 120.488 126.541C118.199 124.17 115.305 122.962 111.997 122.962H73.6704L111.039 79.3132C115.198 75.0491 118.393 70.2723 120.592 64.9887C122.873 59.6466 124 53.8962 124 47.7711C124 41.7293 122.804 35.9703 120.407 30.5225C118.091 25.1278 114.91 20.3834 110.867 16.3134C106.826 12.2458 102.115 9.01631 96.7562 6.62608C91.3307 4.20585 85.5684 3 79.5 3C73.4428 3 67.6898 4.17257 62.2701 6.5282C56.9002 8.86214 52.1802 12.0673 48.1331 16.1408C44.0921 20.2082 40.8854 24.9482 38.5126 30.337Z" fill="#F4F4F4" stroke="#F4F4F4" stroke-width="6"/>
</g>
</svg>
