<svg width="54" height="54" viewBox="0 0 54 54" fill="none" xmlns="http://www.w3.org/2000/svg">
<path d="M8.50909 8.50909L8.50909 8.50909C3.57031 13.4481 0.85 20.0154 0.85 27C0.85 33.9846 3.57031 40.5519 8.50909 45.4909C13.4481 50.4297 20.0154 53.15 27 53.15C33.9846 53.15 40.5519 50.4297 45.4909 45.4909C50.4297 40.5519 53.15 33.9846 53.15 27C53.15 20.0154 50.4297 13.4481 45.4909 8.50909C40.5519 3.57031 33.9846 0.85 27 0.85C20.0154 0.85 13.4481 3.57031 8.50909 8.50909ZM44.2015 44.2015C39.6066 48.7964 33.4982 51.3266 27 51.3266C20.5018 51.3266 14.3934 48.7964 9.7985 44.2015C5.2036 39.6066 2.67344 33.4982 2.67344 27C2.67344 20.5018 5.2036 14.3934 9.7985 9.7985C14.3934 5.2036 20.5018 2.67344 27 2.67344C33.4982 2.67344 39.6066 5.2036 44.2015 9.7985C48.7964 14.3934 51.3266 20.5018 51.3266 27C51.3266 33.4982 48.7964 39.6066 44.2015 44.2015Z" fill="#8EC154" stroke="#8EC154" stroke-width="0.3"/>
<path d="M27 8.99136C26.4965 8.99136 26.0883 9.39956 26.0883 9.90308V13.1596C26.0883 13.6631 26.4965 14.0713 27 14.0713C27.5035 14.0713 27.9117 13.6632 27.9117 13.1597V9.90308C27.9117 9.39956 27.5035 8.99136 27 8.99136Z" fill="#8EC154" stroke="#8EC154" stroke-width="0.3"/>
<path d="M27 39.9286C26.4965 39.9286 26.0883 40.3368 26.0883 40.8403V44.0968C26.0883 44.6004 26.4965 45.0086 27 45.0086C27.5035 45.0086 27.9117 44.6004 27.9117 44.0968V40.8403C27.9117 40.3368 27.5035 39.9286 27 39.9286Z" fill="#8EC154" stroke="#8EC154" stroke-width="0.3"/>
<path d="M44.0969 26.0883H40.8405C40.3369 26.0883 39.9287 26.4965 39.9287 27C39.9287 27.5035 40.3369 27.9117 40.8405 27.9117H44.0969C44.6005 27.9117 45.0087 27.5035 45.0087 27C45.0087 26.4965 44.6005 26.0883 44.0969 26.0883Z" fill="#8EC154" stroke="#8EC154" stroke-width="0.3"/>
<path d="M13.1596 26.0883H9.90308C9.39956 26.0883 8.99136 26.4965 8.99136 27C8.99136 27.5035 9.39956 27.9117 9.90308 27.9117H13.1596C13.6631 27.9117 14.0713 27.5035 14.0713 27C14.0713 26.4965 13.6631 26.0883 13.1596 26.0883Z" fill="#8EC154" stroke="#8EC154" stroke-width="0.3"/>
<path d="M13.9847 18.606L12.5746 17.7919C12.2102 17.5815 11.7444 17.7064 11.5341 18.0707C11.3237 18.435 11.4485 18.9009 11.8128 19.1112L13.2229 19.9253C13.3429 19.9946 13.4739 20.0275 13.6031 20.0275C13.8663 20.0275 14.1224 19.8908 14.2634 19.6466C14.4738 19.2822 14.349 18.8164 13.9847 18.606Z" fill="#8EC154"/>
<path d="M42.1872 34.8888L40.7771 34.0746C40.4128 33.8642 39.9469 33.9891 39.7366 34.3534C39.5262 34.7177 39.6511 35.1836 40.0154 35.3939L41.4255 36.2081C41.5454 36.2773 41.6764 36.3102 41.8056 36.3102C42.0689 36.3102 42.3249 36.1735 42.466 35.9293C42.6763 35.565 42.5515 35.0991 42.1872 34.8888Z" fill="#8EC154"/>
<path d="M35.9293 11.534C35.565 11.3235 35.0991 11.4485 34.8888 11.8128L34.0746 13.2229C33.8643 13.5872 33.9891 14.053 34.3534 14.2634C34.4734 14.3326 34.6044 14.3655 34.7336 14.3655C34.9968 14.3655 35.2529 14.2288 35.3939 13.9846L36.2081 12.5745C36.4184 12.2102 36.2936 11.7443 35.9293 11.534Z" fill="#8EC154"/>
<path d="M19.6466 39.7366C19.2822 39.5262 18.8163 39.6511 18.6061 40.0154L17.7919 41.4255C17.5816 41.7898 17.7064 42.2557 18.0707 42.466C18.1907 42.5353 18.3217 42.5682 18.4509 42.5682C18.7141 42.5682 18.9702 42.4315 19.1112 42.1872L19.9254 40.7771C20.1357 40.4128 20.0109 39.947 19.6466 39.7366Z" fill="#8EC154"/>
<path d="M42.466 18.0707C42.2557 17.7064 41.7897 17.5815 41.4255 17.7919L40.0154 18.606C39.6511 18.8163 39.5263 19.2822 39.7366 19.6465C39.8777 19.8909 40.1337 20.0275 40.397 20.0275C40.5262 20.0275 40.6572 19.9946 40.7771 19.9253L42.1872 19.1112C42.5515 18.9008 42.6764 18.435 42.466 18.0707Z" fill="#8EC154"/>
<path d="M14.2634 34.3534C14.0531 33.989 13.5872 33.8642 13.2229 34.0747L11.8128 34.8888C11.4485 35.0991 11.3237 35.565 11.5341 35.9293C11.6751 36.1737 11.9312 36.3103 12.1944 36.3103C12.3236 36.3103 12.4546 36.2773 12.5746 36.2081L13.9847 35.394C14.349 35.1837 14.4738 34.7179 14.2634 34.3534Z" fill="#8EC154"/>
<path d="M19.9254 13.2229L19.1112 11.8128C18.9009 11.4484 18.435 11.3236 18.0707 11.534C17.7064 11.7443 17.5816 12.2102 17.7919 12.5745L18.6061 13.9846C18.7471 14.229 19.0032 14.3656 19.2664 14.3656C19.3956 14.3656 19.5266 14.3327 19.6466 14.2634C20.0109 14.0531 20.1357 13.5872 19.9254 13.2229Z" fill="#8EC154"/>
<path d="M36.2081 41.4255L35.3939 40.0154C35.1837 39.6511 34.7177 39.5262 34.3534 39.7366C33.9891 39.947 33.8643 40.4128 34.0746 40.7771L34.8888 42.1872C35.0298 42.4316 35.2859 42.5682 35.5491 42.5682C35.6783 42.5682 35.8093 42.5353 35.9293 42.466C36.2936 42.2557 36.4184 41.7898 36.2081 41.4255Z" fill="#8EC154"/>
<path d="M38.3366 25.2559C38.2727 24.8402 37.8846 24.5549 37.4679 24.6189L29.1223 25.9029C28.724 25.1357 27.9225 24.6101 27.0001 24.6101C26.6185 24.6101 26.2578 24.7005 25.9375 24.8602L17.7691 16.6919C17.4716 16.3944 16.9893 16.3944 16.6919 16.6919C16.3944 16.9893 16.3944 17.4717 16.6919 17.769L24.8603 25.9374C24.7005 26.2577 24.6101 26.6185 24.6101 27C24.6101 28.3179 25.6823 29.39 27.0001 29.39C28.1786 29.39 29.16 28.5323 29.3544 27.4085L37.6997 26.1247C38.1154 26.0606 38.4006 25.6717 38.3366 25.2559ZM27 27.8666C26.5222 27.8666 26.1335 27.4778 26.1335 27C26.1335 26.5223 26.5223 26.1335 27 26.1335C27.4778 26.1335 27.8665 26.5223 27.8665 27C27.8665 27.4778 27.4779 27.8666 27 27.8666Z" fill="#8EC154"/>
<path d="M41.3577 10.1371C37.1317 6.53163 31.7375 4.65893 26.1686 4.86542C20.5685 5.07246 15.3004 7.37042 11.3354 11.3354C7.37035 15.3004 5.07238 20.5686 4.86535 26.1687C4.65939 31.7373 6.53156 37.1319 10.137 41.3578C10.3237 41.5767 10.589 41.689 10.8553 41.689C11.0719 41.689 11.2898 41.6148 11.4675 41.4632C11.864 41.125 11.9111 40.5293 11.5729 40.1328C8.2754 36.2677 6.563 31.3336 6.75148 26.2384C6.94089 21.1158 9.04272 16.2974 12.67 12.67C16.2972 9.04268 21.1157 6.94096 26.2384 6.75155C31.3338 6.56317 36.2676 8.27547 40.1327 11.573C40.5291 11.9112 41.1249 11.864 41.4632 11.4675C41.8014 11.071 41.7542 10.4753 41.3577 10.1371Z" fill="#8EC154" stroke="#8EC154" stroke-width="0.3"/>
<path d="M42.5411 13.7697L42.427 13.8671C42.0887 13.4706 42.1359 12.8749 42.5324 12.5366C42.9289 12.1983 43.5246 12.2456 43.8629 12.6421M42.5411 13.7697L43.7488 12.7394M42.5411 13.7697L42.427 13.8671C45.7245 17.7322 47.4368 22.6664 47.2484 27.7614C47.059 32.8841 44.9571 37.7025 41.3299 41.3299C37.7027 44.9572 32.8841 47.0589 27.7615 47.2483C22.6669 47.4369 17.7322 45.7245 13.8672 42.4269C13.4708 42.0887 12.875 42.1359 12.5367 42.5324C12.1985 42.9289 12.2456 43.5245 12.6422 43.8628M42.5411 13.7697L12.7395 43.7487M43.8629 12.6421L43.7488 12.7394M43.8629 12.6421C43.8629 12.6421 43.8629 12.6421 43.8629 12.6421L43.7488 12.7394M43.8629 12.6421C47.4683 16.8681 49.3405 22.2627 49.1346 27.8311C48.9276 33.4313 46.6296 38.6994 42.6646 42.6644C38.6996 46.6294 33.4314 48.9274 27.8313 49.1344C27.5543 49.1447 27.2775 49.1498 27.0016 49.1498C21.7287 49.1498 16.6579 47.2889 12.6422 43.8628M43.7488 12.7394C47.3297 16.9368 49.1892 22.2946 48.9847 27.8256C48.7791 33.3878 46.4968 38.6201 42.5586 42.5584C38.6203 46.4966 33.388 48.7789 27.8258 48.9846C27.5506 48.9947 27.2757 48.9998 27.0016 48.9998C21.7642 48.9998 16.728 47.1515 12.7395 43.7487M12.6422 43.8628L12.7395 43.7487M12.6422 43.8628C12.6422 43.8628 12.6422 43.8628 12.6422 43.8628L12.7395 43.7487" fill="#8EC154" stroke="#8EC154" stroke-width="0.3"/>
</svg>
