<svg width="54" height="54" viewBox="0 0 54 54" fill="none" xmlns="http://www.w3.org/2000/svg">
<path d="M8.50921 8.50909L8.50921 8.50909C3.57043 13.4481 0.850122 20.0154 0.850122 27C0.850122 33.9846 3.57043 40.5519 8.50921 45.4909C13.4482 50.4297 20.0155 53.15 27.0001 53.15C33.9847 53.15 40.552 50.4297 45.491 45.4909C50.4298 40.5519 53.1501 33.9846 53.1501 27C53.1501 20.0154 50.4298 13.4481 45.491 8.50909C40.552 3.57031 33.9847 0.85 27.0001 0.85C20.0155 0.85 13.4482 3.57031 8.50921 8.50909ZM44.2016 44.2015C39.6067 48.7964 33.4983 51.3266 27.0001 51.3266C20.5019 51.3266 14.3935 48.7964 9.79862 44.2015C5.20372 39.6066 2.67356 33.4982 2.67356 27C2.67356 20.5018 5.20372 14.3934 9.79862 9.7985C14.3935 5.2036 20.5019 2.67344 27.0001 2.67344C33.4983 2.67344 39.6067 5.2036 44.2016 9.7985C48.7965 14.3934 51.3267 20.5018 51.3267 27C51.3267 33.4982 48.7965 39.6066 44.2016 44.2015Z" fill="#8EC154" stroke="#8EC154" stroke-width="0.3"/>
<path d="M27.0001 8.99136C26.4966 8.99136 26.0884 9.39956 26.0884 9.90308V13.1596C26.0884 13.6631 26.4966 14.0713 27.0001 14.0713C27.5036 14.0713 27.9118 13.6632 27.9118 13.1597V9.90308C27.9118 9.39956 27.5036 8.99136 27.0001 8.99136Z" fill="#8EC154" stroke="#8EC154" stroke-width="0.3"/>
<path d="M27.0001 39.9286C26.4966 39.9286 26.0884 40.3368 26.0884 40.8403V44.0968C26.0884 44.6004 26.4966 45.0086 27.0001 45.0086C27.5036 45.0086 27.9118 44.6004 27.9118 44.0968V40.8403C27.9118 40.3368 27.5036 39.9286 27.0001 39.9286Z" fill="#8EC154" stroke="#8EC154" stroke-width="0.3"/>
<path d="M44.0971 26.0883H40.8406C40.3371 26.0883 39.9289 26.4965 39.9289 27C39.9289 27.5035 40.3371 27.9117 40.8406 27.9117H44.0971C44.6006 27.9117 45.0088 27.5035 45.0088 27C45.0088 26.4965 44.6006 26.0883 44.0971 26.0883Z" fill="#8EC154" stroke="#8EC154" stroke-width="0.3"/>
<path d="M13.1597 26.0883H9.9032C9.39968 26.0883 8.99148 26.4965 8.99148 27C8.99148 27.5035 9.39968 27.9117 9.9032 27.9117H13.1597C13.6632 27.9117 14.0714 27.5035 14.0714 27C14.0714 26.4965 13.6632 26.0883 13.1597 26.0883Z" fill="#8EC154" stroke="#8EC154" stroke-width="0.3"/>
<path d="M13.9848 18.606L12.5747 17.7919C12.2103 17.5815 11.7445 17.7064 11.5342 18.0707C11.3238 18.435 11.4487 18.9009 11.813 19.1112L13.2231 19.9253C13.343 19.9946 13.474 20.0275 13.6032 20.0275C13.8665 20.0275 14.1225 19.8908 14.2636 19.6466C14.4739 19.2822 14.3491 18.8164 13.9848 18.606Z" fill="#8EC154"/>
<path d="M42.1873 34.8888L40.7772 34.0746C40.4129 33.8642 39.947 33.9891 39.7367 34.3534C39.5264 34.7177 39.6512 35.1836 40.0155 35.3939L41.4256 36.2081C41.5455 36.2773 41.6765 36.3102 41.8057 36.3102C42.069 36.3102 42.325 36.1735 42.4661 35.9293C42.6764 35.565 42.5516 35.0991 42.1873 34.8888Z" fill="#8EC154"/>
<path d="M35.9295 11.534C35.5652 11.3235 35.0993 11.4485 34.889 11.8128L34.0748 13.2229C33.8645 13.5872 33.9893 14.053 34.3536 14.2634C34.4736 14.3326 34.6046 14.3655 34.7338 14.3655C34.997 14.3655 35.2531 14.2288 35.3941 13.9846L36.2083 12.5745C36.4186 12.2102 36.2938 11.7443 35.9295 11.534Z" fill="#8EC154"/>
<path d="M19.6468 39.7366C19.2823 39.5262 18.8165 39.6511 18.6062 40.0154L17.7921 41.4255C17.5818 41.7898 17.7066 42.2557 18.0709 42.466C18.1909 42.5353 18.3219 42.5682 18.4511 42.5682C18.7143 42.5682 18.9703 42.4315 19.1114 42.1872L19.9255 40.7771C20.1359 40.4128 20.0111 39.947 19.6468 39.7366Z" fill="#8EC154"/>
<path d="M42.4661 18.0707C42.2558 17.7064 41.7898 17.5815 41.4256 17.7919L40.0155 18.606C39.6512 18.8163 39.5264 19.2822 39.7367 19.6465C39.8778 19.8909 40.1338 20.0275 40.3971 20.0275C40.5262 20.0275 40.6573 19.9946 40.7772 19.9253L42.1873 19.1112C42.5516 18.9008 42.6764 18.435 42.4661 18.0707Z" fill="#8EC154"/>
<path d="M14.2636 34.3534C14.0532 33.989 13.5874 33.8642 13.2231 34.0747L11.813 34.8888C11.4487 35.0991 11.3238 35.565 11.5342 35.9293C11.6753 36.1737 11.9313 36.3103 12.1945 36.3103C12.3237 36.3103 12.4547 36.2773 12.5747 36.2081L13.9848 35.394C14.3491 35.1837 14.4739 34.7179 14.2636 34.3534Z" fill="#8EC154"/>
<path d="M19.9255 13.2229L19.1114 11.8128C18.9011 11.4484 18.4352 11.3236 18.0709 11.534C17.7066 11.7443 17.5818 12.2102 17.7921 12.5745L18.6062 13.9846C18.7473 14.229 19.0034 14.3656 19.2666 14.3656C19.3958 14.3656 19.5268 14.3327 19.6468 14.2634C20.0111 14.0531 20.1359 13.5872 19.9255 13.2229Z" fill="#8EC154"/>
<path d="M36.2083 41.4255L35.3941 40.0154C35.1839 39.6511 34.7179 39.5262 34.3536 39.7366C33.9893 39.947 33.8645 40.4128 34.0748 40.7771L34.889 42.1872C35.03 42.4316 35.2861 42.5682 35.5493 42.5682C35.6785 42.5682 35.8095 42.5353 35.9295 42.466C36.2938 42.2557 36.4186 41.7898 36.2083 41.4255Z" fill="#8EC154"/>
<path d="M38.3368 25.2559C38.2729 24.8402 37.8847 24.5549 37.4681 24.6189L29.1224 25.9029C28.7242 25.1357 27.9227 24.6101 27.0003 24.6101C26.6187 24.6101 26.258 24.7005 25.9376 24.8602L17.7693 16.6919C17.4718 16.3944 16.9895 16.3944 16.6921 16.6919C16.3946 16.9893 16.3946 17.4717 16.6921 17.769L24.8605 25.9374C24.7007 26.2577 24.6103 26.6185 24.6103 27C24.6103 28.3179 25.6825 29.39 27.0003 29.39C28.1788 29.39 29.1602 28.5323 29.3546 27.4085L37.6999 26.1247C38.1156 26.0606 38.4008 25.6717 38.3368 25.2559ZM27.0002 27.8666C26.5223 27.8666 26.1337 27.4778 26.1337 27C26.1337 26.5223 26.5224 26.1335 27.0002 26.1335C27.4779 26.1335 27.8667 26.5223 27.8667 27C27.8667 27.4778 27.478 27.8666 27.0002 27.8666Z" fill="#8EC154"/>
<path d="M41.3578 10.1371C37.1318 6.53163 31.7376 4.65893 26.1688 4.86542C20.5687 5.07246 15.3005 7.37042 11.3355 11.3354C7.37047 15.3004 5.07251 20.5686 4.86547 26.1687C4.65951 31.7373 6.53167 37.1318 10.1371 41.3578C10.3238 41.5767 10.5891 41.689 10.8554 41.689C11.072 41.689 11.2899 41.6148 11.4676 41.4632C11.8641 41.125 11.9113 40.5293 11.573 40.1328L11.4589 40.2301L11.573 40.1328C8.27552 36.2677 6.56312 31.3336 6.7516 26.2384C6.94101 21.1158 9.04284 16.2974 12.6701 12.67C16.2973 9.04268 21.1159 6.94096 26.2385 6.75155C31.334 6.56317 36.2677 8.27547 40.1328 11.573C40.5292 11.9112 41.125 11.864 41.4633 11.4675C41.8015 11.071 41.7543 10.4753 41.3578 10.1371Z" fill="#8EC154" stroke="#8EC154" stroke-width="0.3"/>
<path d="M12.7251 44.027C17.013 47.5587 22.4388 49.3377 28.0032 49.0347C33.5989 48.7307 38.8265 46.3419 42.7222 42.3088C46.618 38.2757 48.8243 32.9685 48.9343 27.3656C49.0438 21.7943 47.0785 16.433 43.4004 12.2702C43.21 12.0546 42.9428 11.9468 42.6764 11.9515C42.4599 11.9552 42.2433 12.0331 42.0683 12.1878C41.6777 12.5328 41.6409 13.1293 41.9859 13.5198L42.0983 13.4205L41.9859 13.5198C45.3499 17.3272 47.1475 22.2309 47.0473 27.3286C46.9466 32.4537 44.9286 37.3079 41.3647 40.9975C37.8009 44.6871 33.0195 46.872 27.9008 47.1501C22.8094 47.4267 17.8467 45.8001 13.9251 42.5701C13.5229 42.2388 12.928 42.2963 12.5967 42.6986C12.2653 43.1009 12.3228 43.6956 12.7251 44.027Z" fill="#8EC154" stroke="#8EC154" stroke-width="0.3"/>
</svg>
