<svg width="15" height="19" viewBox="0 0 15 19" fill="none" xmlns="http://www.w3.org/2000/svg">
<path d="M7.33981 -3.20833e-07L7.62484 -3.33293e-07C11.7222 0.071094 15 3.41254 15 7.50047C15 8.38915 14.7862 9.27783 14.7862 9.27783C14.5725 10.1665 14.2518 10.8064 14.038 11.1618C14.0024 11.1974 13.9668 11.2685 13.9668 11.304L8.23053 18.6268C7.83862 19.1244 7.09041 19.1244 6.69849 18.6268L1.03352 11.3396C0.997892 11.2685 0.962264 11.2329 0.926635 11.1618C0.605976 10.6286 0.427831 10.0599 0.427831 10.0599C0.392203 9.95323 0.285317 9.66885 0.214059 9.27783C0.214059 9.27783 0.000287252 8.3536 0.000287215 7.50047C-0.0353417 3.41254 3.2425 0.106642 7.33981 -3.20833e-07Z" fill="#8EC154"/>
</svg>
