<svg width="59" height="52" viewBox="0 0 59 52" fill="none" xmlns="http://www.w3.org/2000/svg">
<path d="M48.872 5.94879C48.2365 5.94879 47.7207 6.46457 47.7207 7.10008C47.7207 7.73559 48.2365 8.25136 48.872 8.25136C49.5075 8.25136 50.0233 7.73559 50.0233 7.10008C50.0233 6.46445 49.5075 5.94879 48.872 5.94879Z" fill="#8EC154"/>
<path d="M54.8538 4.78888C52.1063 1.70079 48.2953 0.000115065 44.1229 0.000115065C39.5605 0.000115065 35.3972 1.7686 32.0835 5.11446C30.9312 6.27783 30.0699 7.44017 29.4728 8.36258C28.8758 7.44028 28.0145 6.27806 26.8622 5.11446C23.5485 1.76849 19.3853 0 14.8228 0C6.0896 0 0 7.30616 0 15.9926C0 27.7262 12.4343 37.606 28.7189 51.7187C28.9352 51.9063 29.204 52 29.4728 52C29.7417 52 30.0105 51.9063 30.2268 51.7187C46.5502 37.5722 58.9457 27.7099 58.9457 15.9926C58.9457 11.7334 57.4925 7.75458 54.8538 4.78888ZM29.4728 49.3258C14.0953 36.0188 2.30257 26.4613 2.30257 15.9926C2.30257 8.18804 7.68504 2.30268 14.8228 2.30268C18.7859 2.30268 22.2671 3.77471 25.1695 6.67767C27.3806 8.88929 28.4123 11.1464 28.4224 11.1689C28.6077 11.5819 29.0183 11.8472 29.4711 11.8481C29.4718 11.8481 29.4726 11.8481 29.4733 11.8481C29.926 11.8481 30.3372 11.5818 30.5234 11.1689C30.5335 11.1464 31.5652 8.8894 33.7763 6.67767C36.6786 3.7746 40.1597 2.30268 44.123 2.30268C51.2608 2.30268 56.6432 8.18804 56.6432 15.9926C56.6431 26.6977 44.0723 36.6922 29.4728 49.3258Z" fill="#8EC154"/>
<path d="M52.8987 10.0502C52.6034 9.48703 51.9074 9.27013 51.3445 9.56532C50.7814 9.86062 50.5642 10.5565 50.8595 11.1196C51.6195 12.5687 52.038 14.2993 52.038 15.9926C52.038 19.3193 50.4546 22.8502 47.055 27.1044C46.658 27.6011 46.739 28.3256 47.2356 28.7226C47.7355 29.1221 48.4593 29.0355 48.8538 28.5419C52.5971 23.8576 54.3406 19.8699 54.3406 15.9926C54.3406 13.9037 53.8419 11.8489 52.8987 10.0502Z" fill="#8EC154"/>
<path d="M40.5252 22.0668H34.078V15.6196C34.078 14.9837 33.5625 14.4683 32.9267 14.4683H26.019C25.3831 14.4683 24.8677 14.9837 24.8677 15.6196V22.0668H18.4205C17.7847 22.0668 17.2692 22.5822 17.2692 23.218V30.1257C17.2692 30.7616 17.7847 31.277 18.4205 31.277H24.8677V37.7242C24.8677 38.3601 25.3831 38.8755 26.019 38.8755H32.9267C33.5625 38.8755 34.078 38.3601 34.078 37.7242V31.277H40.5252C41.161 31.277 41.6764 30.7616 41.6764 30.1257V23.218C41.6764 22.5822 41.161 22.0668 40.5252 22.0668ZM39.3739 28.9743H32.9267C32.2908 28.9743 31.7754 29.4898 31.7754 30.1256V36.5728H27.1703V30.1256C27.1703 29.4898 26.6549 28.9743 26.019 28.9743H19.5718V24.3692H26.019C26.6549 24.3692 27.1703 23.8538 27.1703 23.2179V16.7707H31.7754V23.2179C31.7754 23.8538 32.2908 24.3692 32.9267 24.3692H39.3739V28.9743Z" fill="#8EC154"/>
</svg>
