<svg width="60" height="39" viewBox="0 0 60 39" fill="none" xmlns="http://www.w3.org/2000/svg">
<path d="M58.207 10.2936H54.3555V6.44203C54.3555 6.33788 54.3351 6.23474 54.2952 6.1385C54.2554 6.04227 54.197 5.95483 54.1233 5.88119C54.0497 5.80754 53.9623 5.74913 53.866 5.7093C53.7698 5.66947 53.6667 5.649 53.5625 5.64906H49.7109V1.79297C49.711 1.68882 49.6905 1.58568 49.6507 1.48944C49.6109 1.39321 49.5525 1.30577 49.4788 1.23212C49.4052 1.15848 49.3177 1.10007 49.2215 1.06024C49.1253 1.02041 49.0221 0.999941 48.918 1H1.79297C1.68882 0.999941 1.58568 1.02041 1.48944 1.06024C1.39321 1.10007 1.30577 1.15848 1.23212 1.23212C1.15848 1.30577 1.10007 1.39321 1.06024 1.48944C1.02041 1.58568 0.999941 1.68882 1 1.79297V28.0244C1 28.2347 1.08354 28.4364 1.23226 28.5851C1.38097 28.7338 1.58266 28.8173 1.79297 28.8173H5.64453V32.6689C5.64429 32.7732 5.66463 32.8765 5.70438 32.9729C5.74413 33.0692 5.80251 33.1568 5.87617 33.2306C5.94984 33.3044 6.03734 33.363 6.13366 33.4029C6.22998 33.4428 6.33323 33.4633 6.4375 33.4632H10.2891V37.3148C10.289 37.4189 10.3095 37.5221 10.3493 37.6183C10.3891 37.7146 10.4475 37.802 10.5212 37.8756C10.5948 37.9493 10.6823 38.0077 10.7785 38.0475C10.8747 38.0874 10.9779 38.1078 11.082 38.1078H58.207C58.4168 38.1079 58.6181 38.0248 58.7668 37.8768C58.9154 37.7287 58.9993 37.5278 59 37.318V11.0866C59 10.8763 58.9165 10.6746 58.7677 10.5258C58.619 10.3771 58.4173 10.2936 58.207 10.2936ZM2.58594 2.5873H48.1214V27.2314H2.58594V2.5873ZM7.23228 28.8173H48.9143C49.1246 28.8173 49.3263 28.7338 49.4751 28.5851C49.6238 28.4364 49.7073 28.2347 49.7073 28.0244V7.23364H52.7677V31.8773H7.23228V28.8173ZM57.4141 36.5236H11.8786V33.4632H53.5625C53.6667 33.4633 53.7698 33.4428 53.866 33.403C53.9623 33.3632 54.0497 33.3048 54.1233 33.2311C54.197 33.1575 54.2554 33.07 54.2952 32.9738C54.3351 32.8776 54.3555 32.7744 54.3555 32.6703V11.8795H57.4141V36.5236Z" fill="#8EC154"/>
<path d="M8.64286 24.3994C8.6428 24.5035 8.66327 24.6067 8.7031 24.7029C8.74293 24.7991 8.80134 24.8866 8.87498 24.9602C8.94863 25.0339 9.03607 25.0923 9.1323 25.1321C9.22854 25.1719 9.33168 25.1924 9.43583 25.1923H41.2715C41.3756 25.1924 41.4788 25.1719 41.575 25.1321C41.6712 25.0923 41.7587 25.0339 41.8323 24.9602C41.906 24.8866 41.9644 24.7991 42.0042 24.7029C42.044 24.6067 42.0645 24.5035 42.0645 24.3994C42.0654 23.5444 42.4055 22.7247 43.0101 22.1201C43.6146 21.5155 44.4343 21.1754 45.2893 21.1745C45.3935 21.1745 45.4966 21.1541 45.5929 21.1142C45.6891 21.0744 45.7765 21.016 45.8502 20.9424C45.9238 20.8687 45.9822 20.7813 46.0221 20.685C46.0619 20.5888 46.0824 20.4857 46.0823 20.3815V9.43719C46.0824 9.33304 46.0619 9.2299 46.0221 9.13366C45.9822 9.03743 45.9238 8.94999 45.8502 8.87634C45.7765 8.8027 45.6891 8.74429 45.5929 8.70446C45.4966 8.66463 45.3935 8.64416 45.2893 8.64422C44.4341 8.64338 43.6141 8.30316 43.0094 7.69826C42.4048 7.09337 42.0649 6.27324 42.0645 5.41797C42.0645 5.31382 42.044 5.21068 42.0042 5.11444C41.9644 5.01821 41.906 4.93077 41.8323 4.85712C41.7587 4.78348 41.6712 4.72507 41.575 4.68524C41.4788 4.64541 41.3756 4.62494 41.2715 4.625H9.43583C9.33168 4.62494 9.22854 4.64541 9.1323 4.68524C9.03607 4.72507 8.94863 4.78348 8.87498 4.85712C8.80134 4.93077 8.74293 5.01821 8.7031 5.11444C8.66327 5.21068 8.6428 5.31382 8.64286 5.41797C8.64238 6.27324 8.30251 7.09337 7.69786 7.69826C7.09322 8.30316 6.27324 8.64338 5.41797 8.64422C5.31382 8.64416 5.21068 8.66463 5.11444 8.70446C5.01821 8.74429 4.93077 8.8027 4.85712 8.87634C4.78348 8.94999 4.72507 9.03743 4.68524 9.13366C4.64541 9.2299 4.62494 9.33304 4.625 9.43719V20.3815C4.62494 20.4857 4.64541 20.5888 4.68524 20.685C4.72507 20.7813 4.78348 20.8687 4.85712 20.9424C4.93077 21.016 5.01821 21.0744 5.11444 21.1142C5.21068 21.1541 5.31382 21.1745 5.41797 21.1745C6.27297 21.1754 7.09267 21.5155 7.69725 22.1201C8.30183 22.7247 8.6419 23.5444 8.64286 24.3994ZM6.21094 10.1645C7.19862 9.99775 8.10988 9.52764 8.8182 8.8194C9.52651 8.11117 9.99673 7.19996 10.1635 6.2123H40.5438C40.7106 7.19996 41.1808 8.11117 41.8891 8.8194C42.5974 9.52764 43.5087 9.99775 44.4964 10.1645V19.6543C43.5087 19.821 42.5974 20.2911 41.8891 20.9993C41.1808 21.7075 40.7106 22.6187 40.5438 23.6064H10.1635C9.99673 22.6187 9.52651 21.7075 8.8182 20.9993C8.10988 20.2911 7.19862 19.821 6.21094 19.6543V10.1645Z" fill="#8EC154"/>
<path d="M26.8336 17.714H22.0613C21.8509 17.714 21.6492 17.7975 21.5005 17.9462C21.3518 18.0949 21.2683 18.2966 21.2683 18.5069C21.2683 18.7172 21.3518 18.9189 21.5005 19.0676C21.6492 19.2164 21.8509 19.2999 22.0613 19.2999H24.5625V20.7744C24.5625 20.9847 24.646 21.1864 24.7948 21.3351C24.9435 21.4838 25.1452 21.5673 25.3555 21.5673C25.5658 21.5673 25.7675 21.4838 25.9162 21.3351C26.0649 21.1864 26.1484 20.9847 26.1484 20.7744V19.2999H26.8354C27.5262 19.2992 28.1885 19.0245 28.6769 18.536C29.1654 18.0475 29.4401 17.3852 29.4408 16.6944V14.9091C29.4406 14.805 29.4199 14.7019 29.3798 14.6058C29.3397 14.5097 29.2811 14.4224 29.2073 14.3489C29.1335 14.2755 29.046 14.2173 28.9497 14.1776C28.8534 14.138 28.7502 14.1177 28.6461 14.118H22.8542V13.1243C22.8546 12.854 22.9621 12.5949 23.1532 12.4037C23.3444 12.2126 23.6035 12.1051 23.8738 12.1047H28.6461C28.8564 12.1047 29.0581 12.0212 29.2068 11.8725C29.3555 11.7238 29.439 11.5221 29.439 11.3118C29.439 11.1015 29.3555 10.8998 29.2068 10.7511C29.0581 10.6023 28.8564 10.5188 28.6461 10.5188H26.1484V9.04297C26.1484 8.83266 26.0649 8.63097 25.9162 8.48226C25.7675 8.33355 25.5658 8.25 25.3555 8.25C25.1452 8.25 24.9435 8.33355 24.7948 8.48226C24.646 8.63097 24.5625 8.83266 24.5625 9.04297V10.5174H23.8738C23.183 10.5183 22.5208 10.793 22.0323 11.2815C21.5439 11.7699 21.2691 12.4322 21.2683 13.1229V14.9078C21.2683 15.1181 21.3518 15.3198 21.5005 15.4685C21.6492 15.6172 21.8509 15.7007 22.0613 15.7007H27.8531V16.6931C27.8531 16.9636 27.7457 17.2231 27.5546 17.4145C27.3634 17.6059 27.1041 17.7136 26.8336 17.714Z" fill="#8EC154"/>
<path d="M35.0949 17.327C35.5732 17.327 36.0406 17.1852 36.4382 16.9195C36.8359 16.6538 37.1458 16.2762 37.3288 15.8344C37.5118 15.3926 37.5596 14.9064 37.4664 14.4374C37.3731 13.9684 37.1428 13.5376 36.8046 13.1994C36.4665 12.8613 36.0357 12.631 35.5666 12.5377C35.0976 12.4444 34.6115 12.4923 34.1697 12.6753C33.7278 12.8583 33.3502 13.1682 33.0845 13.5658C32.8189 13.9634 32.6771 14.4309 32.6771 14.9091C32.6778 15.5502 32.9328 16.1647 33.386 16.618C33.8393 17.0713 34.4539 17.3263 35.0949 17.327ZM35.0949 14.0772C35.2595 14.0772 35.4203 14.126 35.5571 14.2174C35.694 14.3088 35.8006 14.4387 35.8635 14.5908C35.9265 14.7428 35.943 14.91 35.9109 15.0714C35.8788 15.2328 35.7996 15.381 35.6832 15.4974C35.5669 15.6137 35.4186 15.693 35.2572 15.7251C35.0959 15.7572 34.9286 15.7407 34.7766 15.6777C34.6245 15.6148 34.4946 15.5081 34.4032 15.3713C34.3118 15.2345 34.263 15.0737 34.263 14.9091C34.2631 14.6885 34.3508 14.477 34.5068 14.321C34.6628 14.165 34.8743 14.0773 35.0949 14.0772Z" fill="#8EC154"/>
<path d="M15.6124 17.327C16.0906 17.327 16.5581 17.1852 16.9557 16.9195C17.3533 16.6538 17.6632 16.2762 17.8462 15.8344C18.0292 15.3926 18.0771 14.9064 17.9838 14.4374C17.8905 13.9684 17.6602 13.5376 17.3221 13.1994C16.9839 12.8613 16.5531 12.631 16.0841 12.5377C15.6151 12.4444 15.1289 12.4923 14.6871 12.6753C14.2453 12.8583 13.8677 13.1682 13.602 13.5658C13.3363 13.9634 13.1945 14.4309 13.1945 14.9091C13.1952 15.5502 13.4502 16.1647 13.9035 16.618C14.3568 17.0713 14.9713 17.3263 15.6124 17.327ZM15.6124 14.0772C15.7769 14.0772 15.9378 14.126 16.0746 14.2174C16.2114 14.3088 16.318 14.4387 16.381 14.5908C16.444 14.7428 16.4604 14.91 16.4283 15.0714C16.3962 15.2328 16.317 15.381 16.2006 15.4974C16.0843 15.6137 15.9361 15.693 15.7747 15.7251C15.6133 15.7572 15.446 15.7407 15.294 15.6777C15.142 15.6148 15.0121 15.5081 14.9206 15.3713C14.8292 15.2345 14.7804 15.0737 14.7804 14.9091C14.7806 14.6885 14.8682 14.477 15.0242 14.321C15.1802 14.165 15.3918 14.0773 15.6124 14.0772Z" fill="#8EC154"/>
<path d="M58.207 10.2936H54.3555V6.44203C54.3555 6.33788 54.3351 6.23474 54.2952 6.1385C54.2554 6.04227 54.197 5.95483 54.1233 5.88119C54.0497 5.80754 53.9623 5.74913 53.866 5.7093C53.7698 5.66947 53.6667 5.649 53.5625 5.64906H49.7109V1.79297C49.711 1.68882 49.6905 1.58568 49.6507 1.48944C49.6109 1.39321 49.5525 1.30577 49.4788 1.23212C49.4052 1.15848 49.3177 1.10007 49.2215 1.06024C49.1253 1.02041 49.0221 0.999941 48.918 1H1.79297C1.68882 0.999941 1.58568 1.02041 1.48944 1.06024C1.39321 1.10007 1.30577 1.15848 1.23212 1.23212C1.15848 1.30577 1.10007 1.39321 1.06024 1.48944C1.02041 1.58568 0.999941 1.68882 1 1.79297V28.0244C1 28.2347 1.08354 28.4364 1.23226 28.5851C1.38097 28.7338 1.58266 28.8173 1.79297 28.8173H5.64453V32.6689C5.64429 32.7732 5.66463 32.8765 5.70438 32.9729C5.74413 33.0692 5.80251 33.1568 5.87617 33.2306C5.94984 33.3044 6.03734 33.363 6.13366 33.4029C6.22998 33.4428 6.33323 33.4633 6.4375 33.4632H10.2891V37.3148C10.289 37.4189 10.3095 37.5221 10.3493 37.6183C10.3891 37.7146 10.4475 37.802 10.5212 37.8756C10.5948 37.9493 10.6823 38.0077 10.7785 38.0475C10.8747 38.0874 10.9779 38.1078 11.082 38.1078H58.207C58.4168 38.1079 58.6181 38.0248 58.7668 37.8768C58.9154 37.7287 58.9993 37.5278 59 37.318V11.0866C59 10.8763 58.9165 10.6746 58.7677 10.5258C58.619 10.3771 58.4173 10.2936 58.207 10.2936ZM2.58594 2.5873H48.1214V27.2314H2.58594V2.5873ZM7.23228 28.8173H48.9143C49.1246 28.8173 49.3263 28.7338 49.4751 28.5851C49.6238 28.4364 49.7073 28.2347 49.7073 28.0244V7.23364H52.7677V31.8773H7.23228V28.8173ZM57.4141 36.5236H11.8786V33.4632H53.5625C53.6667 33.4633 53.7698 33.4428 53.866 33.403C53.9623 33.3632 54.0497 33.3048 54.1233 33.2311C54.197 33.1575 54.2554 33.07 54.2952 32.9738C54.3351 32.8776 54.3555 32.7744 54.3555 32.6703V11.8795H57.4141V36.5236Z" stroke="#8EC154" stroke-width="0.7"/>
<path d="M8.64286 24.3994C8.6428 24.5035 8.66327 24.6067 8.7031 24.7029C8.74293 24.7991 8.80134 24.8866 8.87498 24.9602C8.94863 25.0339 9.03607 25.0923 9.1323 25.1321C9.22854 25.1719 9.33168 25.1924 9.43583 25.1923H41.2715C41.3756 25.1924 41.4788 25.1719 41.575 25.1321C41.6712 25.0923 41.7587 25.0339 41.8323 24.9602C41.906 24.8866 41.9644 24.7991 42.0042 24.7029C42.044 24.6067 42.0645 24.5035 42.0645 24.3994C42.0654 23.5444 42.4055 22.7247 43.0101 22.1201C43.6146 21.5155 44.4343 21.1754 45.2893 21.1745C45.3935 21.1745 45.4966 21.1541 45.5929 21.1142C45.6891 21.0744 45.7765 21.016 45.8502 20.9424C45.9238 20.8687 45.9822 20.7813 46.0221 20.685C46.0619 20.5888 46.0824 20.4857 46.0823 20.3815V9.43719C46.0824 9.33304 46.0619 9.2299 46.0221 9.13366C45.9822 9.03743 45.9238 8.94999 45.8502 8.87634C45.7765 8.8027 45.6891 8.74429 45.5929 8.70446C45.4966 8.66463 45.3935 8.64416 45.2893 8.64422C44.4341 8.64338 43.6141 8.30316 43.0094 7.69826C42.4048 7.09337 42.0649 6.27324 42.0645 5.41797C42.0645 5.31382 42.044 5.21068 42.0042 5.11444C41.9644 5.01821 41.906 4.93077 41.8323 4.85712C41.7587 4.78348 41.6712 4.72507 41.575 4.68524C41.4788 4.64541 41.3756 4.62494 41.2715 4.625H9.43583C9.33168 4.62494 9.22854 4.64541 9.1323 4.68524C9.03607 4.72507 8.94863 4.78348 8.87498 4.85712C8.80134 4.93077 8.74293 5.01821 8.7031 5.11444C8.66327 5.21068 8.6428 5.31382 8.64286 5.41797C8.64238 6.27324 8.30251 7.09337 7.69786 7.69826C7.09322 8.30316 6.27324 8.64338 5.41797 8.64422C5.31382 8.64416 5.21068 8.66463 5.11444 8.70446C5.01821 8.74429 4.93077 8.8027 4.85712 8.87634C4.78348 8.94999 4.72507 9.03743 4.68524 9.13366C4.64541 9.2299 4.62494 9.33304 4.625 9.43719V20.3815C4.62494 20.4857 4.64541 20.5888 4.68524 20.685C4.72507 20.7813 4.78348 20.8687 4.85712 20.9424C4.93077 21.016 5.01821 21.0744 5.11444 21.1142C5.21068 21.1541 5.31382 21.1745 5.41797 21.1745C6.27297 21.1754 7.09267 21.5155 7.69725 22.1201C8.30183 22.7247 8.6419 23.5444 8.64286 24.3994ZM6.21094 10.1645C7.19862 9.99775 8.10988 9.52764 8.8182 8.8194C9.52651 8.11117 9.99673 7.19996 10.1635 6.2123H40.5438C40.7106 7.19996 41.1808 8.11117 41.8891 8.8194C42.5974 9.52764 43.5087 9.99775 44.4964 10.1645V19.6543C43.5087 19.821 42.5974 20.2911 41.8891 20.9993C41.1808 21.7075 40.7106 22.6187 40.5438 23.6064H10.1635C9.99673 22.6187 9.52651 21.7075 8.8182 20.9993C8.10988 20.2911 7.19862 19.821 6.21094 19.6543V10.1645Z" stroke="#8EC154" stroke-width="0.7"/>
<path d="M26.8336 17.714H22.0613C21.8509 17.714 21.6492 17.7975 21.5005 17.9462C21.3518 18.0949 21.2683 18.2966 21.2683 18.5069C21.2683 18.7172 21.3518 18.9189 21.5005 19.0676C21.6492 19.2164 21.8509 19.2999 22.0613 19.2999H24.5625V20.7744C24.5625 20.9847 24.646 21.1864 24.7948 21.3351C24.9435 21.4838 25.1452 21.5673 25.3555 21.5673C25.5658 21.5673 25.7675 21.4838 25.9162 21.3351C26.0649 21.1864 26.1484 20.9847 26.1484 20.7744V19.2999H26.8354C27.5262 19.2992 28.1885 19.0245 28.6769 18.536C29.1654 18.0475 29.4401 17.3852 29.4408 16.6944V14.9091C29.4406 14.805 29.4199 14.7019 29.3798 14.6058C29.3397 14.5097 29.2811 14.4224 29.2073 14.3489C29.1335 14.2755 29.046 14.2173 28.9497 14.1776C28.8534 14.138 28.7502 14.1177 28.6461 14.118H22.8542V13.1243C22.8546 12.854 22.9621 12.5949 23.1532 12.4037C23.3444 12.2126 23.6035 12.1051 23.8738 12.1047H28.6461C28.8564 12.1047 29.0581 12.0212 29.2068 11.8725C29.3555 11.7238 29.439 11.5221 29.439 11.3118C29.439 11.1015 29.3555 10.8998 29.2068 10.7511C29.0581 10.6023 28.8564 10.5188 28.6461 10.5188H26.1484V9.04297C26.1484 8.83266 26.0649 8.63097 25.9162 8.48226C25.7675 8.33355 25.5658 8.25 25.3555 8.25C25.1452 8.25 24.9435 8.33355 24.7948 8.48226C24.646 8.63097 24.5625 8.83266 24.5625 9.04297V10.5174H23.8738C23.183 10.5183 22.5208 10.793 22.0323 11.2815C21.5439 11.7699 21.2691 12.4322 21.2683 13.1229V14.9078C21.2683 15.1181 21.3518 15.3198 21.5005 15.4685C21.6492 15.6172 21.8509 15.7007 22.0613 15.7007H27.8531V16.6931C27.8531 16.9636 27.7457 17.2231 27.5546 17.4145C27.3634 17.6059 27.1041 17.7136 26.8336 17.714Z" stroke="#8EC154" stroke-width="0.7"/>
<path d="M35.0949 17.327C35.5732 17.327 36.0406 17.1852 36.4382 16.9195C36.8359 16.6538 37.1458 16.2762 37.3288 15.8344C37.5118 15.3926 37.5596 14.9064 37.4664 14.4374C37.3731 13.9684 37.1428 13.5376 36.8046 13.1994C36.4665 12.8613 36.0357 12.631 35.5666 12.5377C35.0976 12.4444 34.6115 12.4923 34.1697 12.6753C33.7278 12.8583 33.3502 13.1682 33.0845 13.5658C32.8189 13.9634 32.6771 14.4309 32.6771 14.9091C32.6778 15.5502 32.9328 16.1647 33.386 16.618C33.8393 17.0713 34.4539 17.3263 35.0949 17.327ZM35.0949 14.0772C35.2595 14.0772 35.4203 14.126 35.5571 14.2174C35.694 14.3088 35.8006 14.4387 35.8635 14.5908C35.9265 14.7428 35.943 14.91 35.9109 15.0714C35.8788 15.2328 35.7996 15.381 35.6832 15.4974C35.5669 15.6137 35.4186 15.693 35.2572 15.7251C35.0959 15.7572 34.9286 15.7407 34.7766 15.6777C34.6245 15.6148 34.4946 15.5081 34.4032 15.3713C34.3118 15.2345 34.263 15.0737 34.263 14.9091C34.2631 14.6885 34.3508 14.477 34.5068 14.321C34.6628 14.165 34.8743 14.0773 35.0949 14.0772Z" stroke="#8EC154" stroke-width="0.7"/>
<path d="M15.6124 17.327C16.0906 17.327 16.5581 17.1852 16.9557 16.9195C17.3533 16.6538 17.6632 16.2762 17.8462 15.8344C18.0292 15.3926 18.0771 14.9064 17.9838 14.4374C17.8905 13.9684 17.6602 13.5376 17.3221 13.1994C16.9839 12.8613 16.5531 12.631 16.0841 12.5377C15.6151 12.4444 15.1289 12.4923 14.6871 12.6753C14.2453 12.8583 13.8677 13.1682 13.602 13.5658C13.3363 13.9634 13.1945 14.4309 13.1945 14.9091C13.1952 15.5502 13.4502 16.1647 13.9035 16.618C14.3568 17.0713 14.9713 17.3263 15.6124 17.327ZM15.6124 14.0772C15.7769 14.0772 15.9378 14.126 16.0746 14.2174C16.2114 14.3088 16.318 14.4387 16.381 14.5908C16.444 14.7428 16.4604 14.91 16.4283 15.0714C16.3962 15.2328 16.317 15.381 16.2006 15.4974C16.0843 15.6137 15.9361 15.693 15.7747 15.7251C15.6133 15.7572 15.446 15.7407 15.294 15.6777C15.142 15.6148 15.0121 15.5081 14.9206 15.3713C14.8292 15.2345 14.7804 15.0737 14.7804 14.9091C14.7806 14.6885 14.8682 14.477 15.0242 14.321C15.1802 14.165 15.3918 14.0773 15.6124 14.0772Z" stroke="#8EC154" stroke-width="0.7"/>
</svg>
