<svg width="49" height="52" viewBox="0 0 49 52" fill="none" xmlns="http://www.w3.org/2000/svg">
<path d="M11.1714 12.7963C10.6107 12.7963 10.1557 13.2513 10.1557 13.8119C10.1557 14.3725 10.6107 14.8275 11.1714 14.8275C11.732 14.8275 12.187 14.3725 12.187 13.8119C12.187 13.2513 11.732 12.7963 11.1714 12.7963Z" fill="#8EC154"/>
<path d="M20.3115 31.7874H17.2648V28.7407C17.2648 28.1799 16.81 27.7251 16.2492 27.7251C15.6883 27.7251 15.2336 28.1799 15.2336 28.7407V31.7874H12.187C11.6262 31.7874 11.1714 32.2422 11.1714 32.8029C11.1714 33.3637 11.6262 33.8186 12.187 33.8186H15.2336V36.8652C15.2336 37.426 15.6884 37.8808 16.2492 37.8808C16.8099 37.8808 17.2648 37.426 17.2648 36.8652V33.8186H20.3115C20.8723 33.8186 21.3271 33.3638 21.3271 32.8029C21.3271 32.2421 20.8724 31.7874 20.3115 31.7874Z" fill="#8EC154"/>
<path d="M47.7218 32.7015C45.4768 28.813 40.5128 27.4823 36.6237 29.7278L32.4984 32.1095V23.2902C32.4984 22.1999 32.1379 21.118 31.4829 20.2435L26.4051 13.4733V10.5903C27.5871 10.1711 28.4363 9.0423 28.4363 7.71823V3.04667C28.4361 1.36672 27.0693 0 25.3894 0H7.10906C5.42912 0 4.06229 1.36672 4.06229 3.04667V7.71834C4.06229 9.0422 4.91146 10.1712 6.09344 10.5904V13.4734L1.01522 20.244C0.360547 21.1181 0 22.1999 0 23.2902V42.9588C0 45.7587 2.27794 48.0366 5.07782 48.0366H21.3991C23.6762 51.8536 28.5864 53.131 32.4353 50.9087L44.7483 43.7996C48.6031 41.5735 49.9781 36.6111 47.7218 32.7015ZM6.09344 3.04667C6.09344 2.48665 6.54905 2.03104 7.10896 2.03104H25.3893C25.9493 2.03104 26.4049 2.48665 26.4049 3.04667V7.71834C26.4049 8.27835 25.9493 8.73386 25.3893 8.73386H7.10906C6.54905 8.73386 6.09354 8.27825 6.09354 7.71834L6.09344 3.04667ZM2.64062 21.4621L7.92146 14.4211C8.05329 14.2454 8.12459 14.0316 8.12459 13.8118V10.7651H24.3738V12.7963H15.2336C14.6728 12.7963 14.218 13.251 14.218 13.8119C14.218 14.3727 14.6728 14.8275 15.2336 14.8275H24.8816L29.8574 21.4618C30.1826 21.8959 30.3846 22.4154 30.4457 22.9521H2.05278C2.11372 22.4153 2.31572 21.8958 2.64062 21.4621ZM5.07792 46.0054C3.39797 46.0054 2.03125 44.6387 2.03125 42.9588V41.9331H20.4826C20.1605 43.2498 20.1627 44.6563 20.5314 46.0055H5.07792V46.0054ZM21.2791 39.912H2.03115V24.983H30.4672V33.282L24.3106 36.8369C23.0269 37.5784 21.9894 38.6339 21.2791 39.912ZM31.4199 49.1496C28.5053 50.8326 24.781 49.8373 23.0969 46.9207C21.4048 43.976 22.4303 40.2686 25.3264 38.5957L30.8389 35.413L36.9324 45.9668L31.4199 49.1496ZM43.7327 42.0406L38.6914 44.9513L32.5979 34.3973L37.6392 31.4869C40.5557 29.8032 44.2787 30.8002 45.9628 33.7169C47.6543 36.6482 46.6257 40.37 43.7327 42.0406Z" fill="#8EC154"/>
</svg>
